<?xml version="1.0" encoding="UTF-8" ?>
<!DOCTYPE svg PUBLIC "-//W3C//DTD SVG 1.1//EN" "http://www.w3.org/Graphics/SVG/1.1/DTD/svg11.dtd">
<svg width="140pt" height="75pt" viewBox="0 0 898 625" version="1.1" xmlns="http://www.w3.org/2000/svg">
<path fill="#b6b7ba" d=" M 281.50 47.30 C 353.03 29.42 427.36 22.26 500.93 27.91 C 541.26 30.86 581.26 37.58 620.50 47.30 C 620.51 70.38 620.51 93.46 620.50 116.54 C 682.15 129.70 742.28 149.64 799.96 175.03 C 802.62 176.29 805.63 177.04 807.93 178.96 C 807.64 187.74 806.49 196.48 805.73 205.24 C 828.65 205.27 851.57 205.23 874.50 205.26 C 874.50 287.00 874.51 368.75 874.50 450.49 C 833.59 450.52 792.68 450.49 751.77 450.51 C 742.58 473.48 733.48 496.50 724.35 519.50 C 682.53 519.51 640.71 519.50 598.89 519.50 C 597.39 519.36 596.03 519.90 594.99 520.95 C 565.58 548.42 533.57 573.15 499.43 594.46 C 470.65 612.29 432.12 612.42 403.19 594.86 C 368.10 573.15 335.40 547.66 305.28 519.49 C 262.73 519.52 220.19 519.50 177.64 519.50 C 168.53 496.49 159.42 473.48 150.23 450.51 C 109.32 450.50 68.41 450.52 27.50 450.50 C 27.49 368.75 27.50 287.00 27.50 205.26 C 50.42 205.22 73.35 205.27 96.27 205.24 C 95.36 196.39 94.61 187.54 93.88 178.68 C 154.03 151.53 216.92 130.28 281.50 116.55 C 281.50 93.47 281.49 70.38 281.50 47.30 Z" />
<path fill="#002a5c" d=" M 296.00 58.85 C 351.28 45.86 408.18 39.47 464.97 40.75 C 512.45 41.73 559.78 47.99 606.00 58.86 C 606.00 82.06 606.00 105.26 606.00 128.46 C 670.21 141.23 732.85 161.50 792.76 187.86 C 791.75 198.50 790.75 209.14 789.44 219.74 C 812.96 219.77 836.48 219.75 860.00 219.75 C 860.00 291.83 860.00 363.92 860.00 436.00 C 820.58 436.00 781.15 435.99 741.73 436.01 C 732.64 459.02 723.48 482.00 714.37 504.99 C 647.98 505.10 581.58 504.81 515.19 505.14 C 535.79 508.64 556.43 511.99 577.05 515.45 C 549.98 539.76 521.00 562.00 490.05 581.15 C 466.57 595.29 435.50 595.30 412.00 581.21 C 381.02 562.03 351.90 539.88 324.90 515.43 C 345.55 512.05 366.18 508.61 386.81 505.14 C 320.42 504.80 254.02 505.12 187.62 504.98 C 178.53 481.98 169.35 459.01 160.27 436.01 C 120.85 435.99 81.42 436.00 42.00 436.00 C 42.00 363.92 42.00 291.83 42.00 219.75 C 65.52 219.75 89.04 219.77 112.57 219.74 C 111.25 209.14 110.25 198.50 109.25 187.86 C 169.16 161.53 231.78 141.21 295.99 128.47 C 296.01 105.26 296.00 82.05 296.00 58.85 Z" />
<path fill="#e51b24" d=" M 334.75 74.00 C 346.08 74.00 357.42 74.00 368.75 74.00 C 368.75 112.75 368.75 151.50 368.75 190.25 C 381.00 190.25 393.25 190.25 405.50 190.25 C 405.50 151.50 405.50 112.75 405.49 74.01 C 416.74 73.99 428.00 74.00 439.25 74.00 C 439.25 118.46 439.24 162.92 439.25 207.38 C 432.74 212.99 426.28 218.67 419.76 224.27 C 397.83 224.22 375.89 224.27 353.96 224.24 C 347.59 218.53 341.12 212.93 334.74 207.23 C 334.77 162.82 334.74 118.41 334.75 74.00 Z" />
<path fill="#e51b24" d=" M 462.46 91.29 C 468.91 85.48 475.50 79.83 481.94 74.01 C 503.93 73.98 525.93 74.02 547.92 73.99 C 554.37 79.67 560.75 85.43 567.24 91.06 C 567.26 100.29 567.24 109.52 567.25 118.75 C 555.91 118.75 544.58 118.75 533.25 118.75 C 533.24 115.17 533.25 111.58 533.25 108.00 C 521.00 108.00 508.74 107.99 496.49 108.01 C 496.51 116.09 496.50 124.17 496.50 132.25 C 513.01 132.26 529.53 132.24 546.04 132.24 C 548.16 131.95 549.69 133.58 551.15 134.85 C 556.46 139.72 561.88 144.47 567.25 149.29 C 567.26 168.59 567.23 187.89 567.26 207.18 C 560.92 212.94 554.46 218.57 548.06 224.26 C 526.01 224.25 503.97 224.23 481.93 224.27 C 475.41 218.65 468.97 212.93 462.49 207.26 C 462.50 197.76 462.49 188.26 462.50 178.75 C 473.83 178.75 485.16 178.75 496.50 178.75 C 496.50 182.58 496.50 186.41 496.51 190.25 C 508.75 190.25 521.00 190.25 533.25 190.25 C 533.25 182.25 533.25 174.25 533.25 166.25 C 516.15 166.25 499.05 166.24 481.95 166.26 C 475.46 160.56 469.01 154.82 462.51 149.15 C 462.46 129.87 462.55 110.58 462.46 91.29 Z" />
<path fill="#98012e" d=" M 341.52 149.01 C 348.34 148.99 355.17 148.99 361.99 149.00 C 362.02 165.00 361.98 181.00 362.01 196.99 C 378.67 197.00 395.33 197.00 411.99 196.99 C 412.02 181.00 411.98 165.00 412.01 149.00 C 418.92 148.99 425.83 148.98 432.75 149.01 C 432.76 167.36 432.73 185.71 432.77 204.05 C 427.54 208.42 422.78 213.46 417.13 217.27 C 398.78 217.86 380.37 217.25 362.00 217.56 C 359.62 217.43 356.83 218.00 354.95 216.15 C 350.41 212.25 345.97 208.23 341.49 204.24 C 341.53 185.83 341.48 167.42 341.52 149.01 Z" />
<path fill="#98012e" d=" M 472.57 149.04 C 499.72 148.92 526.87 149.07 554.03 148.97 C 556.72 148.56 558.62 150.56 560.55 152.08 C 560.43 169.47 560.51 186.86 560.51 204.25 C 556.04 208.22 551.64 212.27 547.12 216.17 C 545.79 217.57 543.79 217.47 542.04 217.54 C 523.68 217.45 505.31 217.51 486.95 217.51 C 483.57 217.85 481.41 214.86 479.07 212.95 C 475.96 209.86 472.09 207.51 469.45 203.98 C 468.87 197.85 469.42 191.66 469.27 185.51 C 476.09 185.50 482.91 185.50 489.73 185.51 C 489.74 189.33 489.76 193.16 489.77 196.98 C 506.51 197.02 523.25 197.00 539.99 196.99 C 540.00 184.49 540.03 171.99 539.98 159.50 C 524.65 159.50 509.34 159.48 494.02 159.51 C 490.78 159.45 487.47 159.85 484.29 159.14 C 480.05 156.18 476.53 152.35 472.57 149.04 Z" />
<path fill="#004b8d" d=" M 158.16 217.22 C 202.76 199.36 248.93 185.31 295.96 175.48 C 296.03 181.09 296.02 186.69 295.98 192.29 C 265.85 198.88 236.05 206.99 206.84 216.88 C 202.72 218.38 198.52 220.03 194.06 219.81 C 182.13 219.65 170.21 219.89 158.28 219.66 C 158.25 219.05 158.19 217.83 158.16 217.22 Z" />
<path fill="#004b8d" d=" M 606.03 175.48 C 653.07 185.32 699.25 199.36 743.86 217.23 C 743.82 217.84 743.74 219.06 743.70 219.67 C 731.80 219.89 719.90 219.66 708.01 219.81 C 703.49 220.05 699.26 218.37 695.11 216.86 C 665.91 206.99 636.13 198.87 606.02 192.29 C 605.97 186.69 605.96 181.09 606.03 175.48 Z" />
<path fill="#ffffff" d=" M 69.20 402.77 C 80.29 352.84 91.42 302.92 102.56 253.00 C 117.09 253.00 131.62 253.00 146.16 253.00 C 157.31 302.92 168.38 352.85 179.54 402.76 C 168.96 402.73 158.37 402.76 147.79 402.75 C 145.31 391.66 142.84 380.58 140.36 369.49 C 129.69 369.51 119.01 369.51 108.34 369.49 C 105.85 380.58 103.44 391.69 100.91 402.76 C 90.34 402.74 79.77 402.74 69.20 402.77 Z" />
<path fill="#ffffff" d=" M 194.00 253.00 C 204.41 253.00 214.83 253.00 225.25 253.00 C 234.03 270.06 242.94 287.06 251.80 304.08 C 260.78 287.09 269.57 270.00 278.53 253.00 C 288.94 253.00 299.34 253.00 309.75 253.00 C 309.75 302.92 309.75 352.83 309.75 402.75 C 299.33 402.75 288.91 402.75 278.50 402.75 C 278.51 374.82 278.48 346.89 278.51 318.96 C 269.71 336.12 260.67 353.16 251.79 370.28 C 243.02 353.25 234.12 336.30 225.31 319.30 C 225.17 347.11 225.29 374.93 225.25 402.75 C 214.83 402.75 204.42 402.75 194.00 402.75 C 194.00 352.83 194.00 302.92 194.00 253.00 Z" />
<path fill="#ffffff" d=" M 357.66 253.01 C 372.20 252.99 386.73 253.00 401.27 253.00 C 412.40 302.91 423.53 352.82 434.62 402.73 C 424.04 402.77 413.45 402.74 402.87 402.75 C 400.45 391.66 397.96 380.58 395.47 369.50 C 384.80 369.50 374.13 369.51 363.46 369.50 C 360.97 380.58 358.52 391.66 356.06 402.75 C 345.47 402.74 334.89 402.76 324.30 402.74 C 335.42 352.83 346.54 302.92 357.66 253.01 Z" />
<path fill="#ffffff" d=" M 420.00 253.00 C 450.75 253.00 481.50 253.00 512.25 253.00 C 512.25 262.25 512.25 271.50 512.25 280.75 C 502.08 280.75 491.92 280.75 481.75 280.75 C 481.75 321.42 481.75 362.08 481.75 402.75 C 471.33 402.75 460.91 402.75 450.50 402.75 C 450.50 362.08 450.50 321.42 450.50 280.75 C 440.33 280.75 430.17 280.75 420.00 280.75 C 420.00 271.50 420.00 262.25 420.00 253.00 Z" />
<path fill="#ffffff" d=" M 527.00 253.00 C 553.67 253.00 580.33 253.00 607.00 253.00 C 607.00 262.25 607.00 271.50 607.00 280.75 C 590.67 280.75 574.33 280.75 558.00 280.75 C 558.00 291.83 558.00 302.92 558.00 314.00 C 572.08 314.00 586.17 314.00 600.25 314.00 C 600.25 323.33 600.25 332.67 600.25 342.00 C 586.17 342.00 572.08 342.00 558.00 342.00 C 558.00 353.00 558.00 364.00 558.00 375.00 C 574.58 375.00 591.17 375.00 607.75 375.00 C 607.75 384.25 607.75 393.50 607.75 402.75 C 580.83 402.75 553.92 402.75 527.00 402.75 C 527.00 352.83 527.00 302.92 527.00 253.00 Z" />
<path fill="#ffffff" d=" M 622.25 253.00 C 632.58 253.00 642.92 253.00 653.25 253.00 C 653.25 293.67 653.25 334.33 653.25 375.00 C 664.66 375.00 676.08 375.00 687.50 375.00 C 687.49 334.33 687.50 293.67 687.50 253.00 C 697.83 253.00 708.17 253.00 718.50 253.00 C 718.50 297.74 718.51 342.49 718.50 387.23 C 711.88 392.41 705.24 397.58 698.61 402.75 C 679.66 402.74 660.71 402.77 641.77 402.74 C 635.29 397.54 628.76 392.42 622.26 387.25 C 622.23 342.50 622.26 297.75 622.25 253.00 Z" />
<path fill="#ffffff" d=" M 733.25 253.00 C 758.05 253.00 782.85 252.99 807.65 253.01 C 814.17 258.27 820.75 263.46 827.26 268.73 C 827.26 287.06 827.22 305.38 827.28 323.71 C 820.32 329.73 813.17 335.51 806.18 341.49 C 815.15 361.87 823.93 382.34 832.85 402.74 C 821.71 402.75 810.58 402.76 799.45 402.73 C 790.73 382.49 782.05 362.23 773.30 342.00 C 770.36 342.00 767.43 341.99 764.50 342.00 C 764.50 362.25 764.50 382.50 764.50 402.75 C 754.08 402.75 743.67 402.75 733.25 402.75 C 733.25 352.83 733.25 302.92 733.25 253.00 Z" />
<path fill="#002a5c" d=" M 764.50 280.75 C 775.00 280.75 785.50 280.75 796.00 280.75 C 796.00 291.83 796.00 302.92 796.00 314.00 C 785.50 314.00 775.00 314.00 764.50 314.00 C 764.50 302.92 764.50 291.83 764.50 280.75 Z" />
<path fill="#002a5c" d=" M 124.36 297.58 C 127.62 312.30 130.87 327.03 134.20 341.75 C 127.64 341.76 121.07 341.74 114.51 341.76 C 117.80 327.03 121.12 312.31 124.36 297.58 Z" />
<path fill="#002a5c" d=" M 369.66 341.75 C 372.87 327.00 376.30 312.29 379.45 297.53 C 382.71 312.28 386.02 327.01 389.31 341.76 C 382.76 341.74 376.21 341.75 369.66 341.75 Z" />
<path fill="#b6b7ba" d=" M 94.44 327.80 C 99.32 327.76 104.20 327.68 109.08 327.78 C 107.41 335.18 105.74 342.58 104.13 349.99 C 117.61 350.02 131.10 349.99 144.59 350.00 C 142.94 342.59 141.28 335.19 139.66 327.77 C 144.52 327.74 149.38 327.74 154.24 327.76 C 159.17 350.00 164.20 372.22 169.08 394.48 C 164.24 394.50 159.39 394.50 154.55 394.49 C 151.99 383.43 149.60 372.33 147.11 361.26 C 131.94 361.24 116.77 361.24 101.60 361.26 C 99.17 372.34 96.65 383.40 94.19 394.48 C 89.34 394.51 84.48 394.51 79.63 394.47 C 84.53 372.24 89.53 350.03 94.44 327.80 Z" />
<path fill="#b6b7ba" d=" M 202.51 327.76 C 207.26 327.74 212.00 327.74 216.75 327.76 C 216.76 350.00 216.76 372.24 216.75 394.48 C 212.00 394.50 207.26 394.50 202.51 394.48 C 202.50 372.24 202.50 350.00 202.51 327.76 Z" />
<path fill="#b6b7ba" d=" M 239.14 327.77 C 247.59 327.74 256.05 327.74 264.50 327.77 C 260.32 335.89 256.11 344.00 251.80 352.05 C 247.55 343.98 243.36 335.86 239.14 327.77 Z" />
<path fill="#b6b7ba" d=" M 287.01 327.76 C 291.75 327.74 296.49 327.74 301.24 327.77 C 301.25 350.00 301.25 372.24 301.24 394.48 C 296.49 394.50 291.75 394.50 287.01 394.49 C 287.00 372.25 286.99 350.00 287.01 327.76 Z" />
<path fill="#b6b7ba" d=" M 334.74 394.48 C 339.66 372.23 344.62 349.99 349.61 327.75 C 354.46 327.74 359.31 327.75 364.16 327.77 C 362.59 335.19 360.84 342.58 359.22 350.00 C 372.72 350.00 386.22 350.00 399.73 350.00 C 398.04 342.59 396.38 335.19 394.77 327.77 C 399.62 327.74 404.48 327.74 409.34 327.75 C 414.32 349.99 419.29 372.23 424.21 394.49 C 419.36 394.50 414.50 394.50 409.65 394.50 C 407.09 383.43 404.74 372.32 402.20 361.25 C 387.04 361.25 371.89 361.22 356.73 361.27 C 354.25 372.34 351.79 383.42 349.29 394.49 C 344.44 394.50 339.59 394.50 334.74 394.48 Z" />
<path fill="#b6b7ba" d=" M 459.01 327.76 C 463.83 327.74 468.66 327.74 473.48 327.77 C 473.50 350.00 473.50 372.24 473.49 394.48 C 468.66 394.50 463.83 394.50 459.01 394.49 C 458.99 372.25 458.99 350.00 459.01 327.76 Z" />
<path fill="#b6b7ba" d=" M 535.26 327.76 C 554.08 327.74 572.91 327.75 591.74 327.76 C 591.73 329.67 591.74 331.57 591.77 333.49 C 577.76 333.52 563.76 333.45 549.76 333.52 C 549.75 350.09 549.74 366.66 549.76 383.24 C 566.25 383.27 582.74 383.23 599.23 383.26 C 599.25 387.00 599.25 390.74 599.24 394.49 C 577.91 394.51 556.58 394.48 535.25 394.50 C 535.25 372.26 535.24 350.01 535.26 327.76 Z" />
<path fill="#b6b7ba" d=" M 630.52 327.76 C 635.34 327.74 640.16 327.74 644.99 327.76 C 645.02 346.25 644.98 364.75 645.01 383.24 C 662.00 383.25 679.00 383.25 695.99 383.24 C 696.02 364.75 695.98 346.25 696.01 327.76 C 700.75 327.74 705.49 327.74 710.24 327.77 C 710.26 346.19 710.24 364.61 710.25 383.03 C 705.08 386.70 700.53 391.49 694.90 394.35 C 680.27 394.75 665.61 394.31 650.98 394.55 C 648.26 394.45 645.15 395.01 642.97 393.00 C 638.77 389.76 634.70 386.35 630.51 383.10 C 630.51 364.65 630.49 346.21 630.52 327.76 Z" />
<path fill="#b6b7ba" d=" M 741.52 327.76 C 764.16 327.76 786.81 327.72 809.45 327.78 C 805.02 331.57 800.50 335.26 796.06 339.03 C 804.03 357.53 812.15 375.97 820.09 394.48 C 815.07 394.51 810.05 394.49 805.04 394.49 C 796.22 374.19 787.55 353.82 778.76 333.50 C 771.18 333.49 763.59 333.49 756.01 333.50 C 755.98 353.83 756.02 374.16 755.99 394.49 C 751.16 394.50 746.34 394.50 741.51 394.48 C 741.50 372.24 741.50 350.00 741.52 327.76 Z" />
<path fill="#ffffff" d=" M 214.75 427.25 C 224.11 427.25 233.46 427.26 242.82 427.24 C 245.30 429.20 247.79 431.13 250.26 433.09 C 250.25 438.90 250.23 444.71 250.27 450.53 C 248.83 452.14 247.39 453.76 245.90 455.34 C 247.39 456.93 248.79 458.60 250.27 460.22 C 250.23 466.05 250.26 471.89 250.24 477.73 C 247.78 479.64 245.33 481.56 242.89 483.51 C 233.51 483.49 224.13 483.50 214.75 483.50 C 214.75 464.75 214.75 446.00 214.75 427.25 Z" />
<path fill="#ffffff" d=" M 276.39 427.23 C 281.90 427.26 287.42 427.25 292.95 427.24 C 297.22 445.98 301.36 464.75 305.58 483.50 C 301.53 483.50 297.47 483.50 293.42 483.50 C 292.48 479.34 291.56 475.18 290.66 471.01 C 286.68 470.99 282.71 471.00 278.73 471.00 C 277.81 475.17 276.85 479.33 275.96 483.51 C 271.89 483.50 267.83 483.49 263.76 483.51 C 268.00 464.76 272.17 445.99 276.39 427.23 Z" />
<path fill="#ffffff" d=" M 326.53 427.26 C 333.33 427.24 340.13 427.26 346.93 427.25 C 349.36 429.19 351.82 431.10 354.26 433.04 C 354.25 436.02 354.25 439.01 354.25 442.00 C 350.33 442.00 346.41 442.00 342.50 442.00 C 342.49 440.58 342.49 439.16 342.50 437.75 C 338.66 437.75 334.83 437.75 331.00 437.75 C 331.00 441.83 331.00 445.91 331.00 450.00 C 336.26 450.00 341.53 450.00 346.79 450.00 C 349.28 451.98 351.77 453.97 354.25 455.96 C 354.24 463.21 354.26 470.46 354.24 477.72 C 351.81 479.65 349.39 481.59 346.94 483.51 C 340.13 483.50 333.33 483.49 326.52 483.52 C 324.02 481.55 321.49 479.61 319.00 477.64 C 319.00 474.59 319.00 471.54 319.00 468.50 C 323.00 468.50 327.00 468.50 331.00 468.50 C 331.00 469.99 330.99 471.49 331.00 473.00 C 334.83 473.00 338.67 473.00 342.50 473.00 C 342.49 468.91 342.49 464.83 342.50 460.75 C 337.21 460.59 331.88 461.07 326.62 460.55 C 323.90 458.87 321.54 456.68 319.02 454.75 C 318.98 447.57 319.01 440.39 318.99 433.21 C 321.49 431.21 324.01 429.23 326.53 427.26 Z" />
<path fill="#ffffff" d=" M 367.75 427.25 C 371.75 427.25 375.75 427.25 379.75 427.25 C 379.76 434.66 379.73 442.07 379.77 449.48 C 383.83 442.08 387.87 434.67 391.90 427.25 C 396.33 427.25 400.76 427.26 405.19 427.23 C 400.10 436.66 394.86 446.01 389.65 455.38 C 394.84 464.75 400.05 474.11 405.20 483.50 C 400.77 483.50 396.34 483.50 391.91 483.50 C 387.88 476.08 383.81 468.69 379.76 461.28 C 379.74 468.69 379.75 476.09 379.75 483.50 C 375.75 483.50 371.75 483.50 367.75 483.50 C 367.75 464.75 367.75 446.00 367.75 427.25 Z" />
<path fill="#ffffff" d=" M 418.75 427.25 C 428.83 427.25 438.91 427.25 449.00 427.25 C 449.00 430.75 449.00 434.25 449.00 437.75 C 442.83 437.75 436.67 437.75 430.50 437.75 C 430.50 441.83 430.50 445.91 430.50 450.00 C 435.83 449.99 441.17 450.00 446.50 450.00 C 446.50 453.58 446.50 457.16 446.50 460.75 C 441.17 460.74 435.83 460.75 430.50 460.75 C 430.50 464.83 430.50 468.91 430.50 473.00 C 436.75 473.00 443.00 473.00 449.25 473.00 C 449.25 476.50 449.25 480.00 449.25 483.50 C 439.08 483.50 428.92 483.50 418.75 483.50 C 418.75 464.75 418.75 446.00 418.75 427.25 Z" />
<path fill="#ffffff" d=" M 462.75 427.25 C 474.41 427.25 486.08 427.25 497.75 427.25 C 497.75 430.75 497.75 434.25 497.75 437.75 C 493.91 437.75 490.08 437.75 486.25 437.75 C 486.25 453.00 486.25 468.25 486.25 483.50 C 482.25 483.50 478.25 483.50 474.25 483.50 C 474.25 468.25 474.25 453.00 474.25 437.75 C 470.41 437.75 466.58 437.75 462.75 437.75 C 462.75 434.25 462.75 430.75 462.75 427.25 Z" />
<path fill="#ffffff" d=" M 511.25 427.25 C 520.62 427.26 529.98 427.23 539.35 427.26 C 541.82 429.23 544.29 431.19 546.76 433.16 C 546.74 438.96 546.74 444.76 546.76 450.56 C 545.28 452.16 543.81 453.77 542.34 455.37 C 543.81 456.98 545.29 458.58 546.76 460.20 C 546.74 466.02 546.75 471.84 546.75 477.66 C 544.27 479.61 541.81 481.58 539.32 483.51 C 529.96 483.49 520.61 483.51 511.25 483.50 C 511.25 464.75 511.25 446.00 511.25 427.25 Z" />
<path fill="#ffffff" d=" M 572.83 427.25 C 578.37 427.25 583.91 427.24 589.46 427.26 C 593.61 446.02 597.87 464.75 602.03 483.51 C 597.98 483.49 593.94 483.50 589.90 483.50 C 588.95 479.34 587.99 475.17 587.09 471.00 C 583.12 471.00 579.15 471.00 575.19 471.00 C 574.28 475.17 573.28 479.33 572.40 483.51 C 568.33 483.50 564.28 483.50 560.22 483.51 C 564.44 464.76 568.64 446.01 572.83 427.25 Z" />
<path fill="#ffffff" d=" M 615.50 427.25 C 619.50 427.25 623.50 427.25 627.50 427.25 C 627.50 442.50 627.51 457.75 627.50 473.00 C 633.16 472.99 638.83 473.00 644.50 473.00 C 644.50 476.50 644.50 480.00 644.50 483.50 C 634.83 483.50 625.16 483.50 615.50 483.50 C 615.50 464.75 615.50 446.00 615.50 427.25 Z" />
<path fill="#ffffff" d=" M 658.25 427.25 C 662.16 427.25 666.08 427.25 670.00 427.25 C 670.00 442.50 670.00 457.75 670.00 473.00 C 675.75 473.00 681.50 473.00 687.25 473.00 C 687.25 476.50 687.24 480.00 687.25 483.50 C 677.58 483.50 667.92 483.50 658.25 483.50 C 658.25 464.75 658.25 446.00 658.25 427.25 Z" />
<path fill="#002a5c" d=" M 226.75 437.75 C 230.58 437.75 234.42 437.75 238.25 437.75 C 238.25 441.83 238.25 445.91 238.25 450.00 C 234.42 450.00 230.58 450.00 226.75 450.00 C 226.75 445.91 226.75 441.83 226.75 437.75 Z" />
<path fill="#002a5c" d=" M 523.25 437.75 C 527.08 437.75 530.91 437.75 534.75 437.75 C 534.75 441.83 534.75 445.91 534.75 450.00 C 530.91 450.00 527.08 450.00 523.25 450.00 C 523.25 445.91 523.25 441.83 523.25 437.75 Z" />
<path fill="#002a5c" d=" M 284.69 444.43 C 285.85 449.79 287.06 455.15 288.28 460.50 C 285.88 460.49 283.47 460.49 281.07 460.50 C 282.33 455.15 283.47 449.78 284.69 444.43 Z" />
<path fill="#002a5c" d=" M 577.55 460.49 C 578.74 455.08 580.01 449.70 581.14 444.28 C 582.26 449.71 583.54 455.10 584.73 460.52 C 582.33 460.49 579.94 460.49 577.55 460.49 Z" />
<path fill="#b6b7ba" d=" M 218.26 455.77 C 226.06 455.73 233.87 455.76 241.68 455.74 C 243.44 457.74 245.77 459.45 246.80 461.97 C 247.36 466.61 246.84 471.31 247.01 475.98 C 244.62 477.78 242.39 480.56 239.09 480.26 C 232.14 480.31 225.20 480.20 218.26 480.25 C 218.24 472.09 218.24 463.93 218.26 455.77 Z" />
<path fill="#b6b7ba" d=" M 273.40 455.79 C 275.16 455.79 276.93 455.77 278.70 455.72 C 278.09 458.39 277.57 461.09 276.97 463.76 C 282.11 463.76 287.25 463.75 292.39 463.74 C 291.78 461.09 291.27 458.41 290.67 455.77 C 292.42 455.77 294.18 455.76 295.93 455.74 C 297.73 463.90 299.64 472.04 301.38 480.22 C 299.64 480.21 297.90 480.23 296.16 480.28 C 295.22 476.10 294.25 471.94 293.33 467.77 C 287.57 467.74 281.81 467.74 276.05 467.76 C 275.12 471.92 274.15 476.08 273.20 480.25 C 271.45 480.22 269.70 480.22 267.96 480.25 C 269.72 472.08 271.63 463.95 273.40 455.79 Z" />
<path fill="#b6b7ba" d=" M 325.36 456.03 C 331.56 455.52 337.79 455.86 344.00 455.69 C 346.43 455.55 348.81 456.08 351.02 457.08 C 350.97 463.40 351.01 469.72 351.01 476.04 C 348.84 477.60 346.92 480.12 344.05 480.21 C 338.64 480.43 333.23 480.13 327.82 480.27 C 326.07 478.85 324.27 477.49 322.49 476.11 C 322.51 474.65 322.51 473.20 322.51 471.75 C 324.15 471.77 325.79 471.77 327.44 471.75 C 327.47 473.23 327.49 474.74 327.53 476.24 C 333.60 476.25 339.67 476.26 345.74 476.23 C 345.76 469.90 345.75 463.58 345.75 457.26 C 338.97 456.74 331.87 458.46 325.36 456.03 Z" />
<path fill="#b6b7ba" d=" M 371.26 455.75 C 372.91 455.78 374.57 455.77 376.24 455.75 C 376.25 463.91 376.26 472.08 376.24 480.25 C 374.57 480.22 372.91 480.22 371.26 480.25 C 371.24 472.09 371.24 463.92 371.26 455.75 Z" />
<path fill="#b6b7ba" d=" M 380.61 455.77 C 382.40 455.77 384.20 455.76 385.99 455.74 C 390.56 463.89 395.06 472.06 399.57 480.24 C 397.69 480.22 395.81 480.23 393.94 480.25 C 389.49 472.09 385.01 463.95 380.61 455.77 Z" />
<path fill="#b6b7ba" d=" M 422.01 455.76 C 429.01 455.75 436.01 455.74 443.01 455.76 L 443.00 457.24 C 437.75 457.23 432.50 457.26 427.25 457.25 C 427.24 463.57 427.24 469.90 427.26 476.23 C 433.50 476.26 439.75 476.24 446.00 476.25 C 445.99 477.58 445.99 478.90 445.99 480.24 C 438.00 480.25 430.00 480.25 422.01 480.24 C 421.99 472.08 421.99 463.92 422.01 455.76 Z" />
<path fill="#b6b7ba" d=" M 477.77 455.75 C 479.42 455.77 481.08 455.78 482.74 455.75 C 482.76 463.92 482.76 472.08 482.74 480.25 C 481.08 480.22 479.42 480.22 477.76 480.25 C 477.74 472.08 477.74 463.92 477.77 455.75 Z" />
<path fill="#b6b7ba" d=" M 514.76 455.76 C 522.56 455.73 530.36 455.77 538.16 455.74 C 539.84 457.59 541.54 459.42 543.23 461.28 C 543.25 466.24 543.25 471.21 543.26 476.18 C 541.05 477.78 539.02 480.31 536.05 480.24 C 528.96 480.34 521.86 480.19 514.76 480.24 C 514.74 472.08 514.74 463.92 514.76 455.76 Z" />
<path fill="#b6b7ba" d=" M 569.92 455.75 C 571.65 455.76 573.39 455.76 575.14 455.75 C 574.53 458.41 574.01 461.08 573.42 463.74 C 578.57 463.76 583.72 463.76 588.87 463.73 C 588.27 461.06 587.72 458.39 587.12 455.74 C 588.86 455.75 590.61 455.75 592.37 455.75 C 594.25 463.90 596.02 472.07 597.88 480.22 C 596.12 480.21 594.36 480.23 592.62 480.28 C 591.68 476.10 590.70 471.93 589.77 467.76 C 584.02 467.74 578.26 467.75 572.51 467.76 C 571.56 471.92 570.60 476.08 569.70 480.25 C 567.93 480.22 566.16 480.21 564.41 480.24 C 566.23 472.07 568.02 463.89 569.92 455.75 Z" />
<path fill="#b6b7ba" d=" M 619.01 455.75 C 620.66 455.76 622.32 455.76 623.99 455.74 C 624.02 462.58 623.98 469.41 624.01 476.24 C 629.75 476.24 635.50 476.25 641.24 476.26 C 641.24 477.58 641.23 478.90 641.24 480.23 C 633.83 480.26 626.42 480.25 619.01 480.24 C 618.99 472.08 618.99 463.91 619.01 455.75 Z" />
<path fill="#b6b7ba" d=" M 661.52 455.75 C 663.25 455.77 664.99 455.78 666.74 455.76 C 666.77 462.58 666.73 469.41 666.77 476.24 C 672.43 476.24 678.09 476.25 683.76 476.26 C 683.75 477.58 683.74 478.90 683.74 480.23 C 676.33 480.26 668.92 480.25 661.52 480.24 C 661.49 472.07 661.49 463.91 661.52 455.75 Z" />
<path fill="#ffffff" d=" M 223.25 457.25 C 229.42 457.24 235.58 457.24 241.75 457.25 C 241.76 463.58 241.76 469.91 241.75 476.24 C 235.58 476.25 229.42 476.25 223.26 476.25 C 223.24 469.91 223.24 463.58 223.25 457.25 Z" />
<path fill="#ffffff" d=" M 519.76 457.26 C 525.92 457.24 532.08 457.24 538.24 457.26 C 538.25 463.58 538.25 469.91 538.24 476.24 C 532.08 476.25 525.92 476.25 519.76 476.24 C 519.74 469.91 519.75 463.58 519.76 457.26 Z" />
<path fill="#002a5c" d=" M 226.75 460.75 C 230.58 460.75 234.42 460.75 238.25 460.75 C 238.25 464.83 238.25 468.91 238.25 473.00 C 234.42 473.00 230.58 473.00 226.75 473.00 C 226.75 468.91 226.75 464.83 226.75 460.75 Z" />
<path fill="#002a5c" d=" M 523.25 460.75 C 527.08 460.75 530.91 460.75 534.75 460.75 C 534.75 464.83 534.75 468.91 534.75 473.00 C 530.91 473.00 527.08 473.00 523.25 473.00 C 523.25 468.91 523.25 464.83 523.25 460.75 Z" />
<path fill="#004b8d" d=" M 368.15 516.29 C 374.83 514.69 381.55 513.28 388.23 511.69 C 403.22 522.90 418.37 533.96 434.40 543.65 C 444.41 549.56 457.56 549.53 467.57 543.65 C 482.67 534.33 497.24 524.13 511.31 513.32 C 512.58 512.26 514.20 511.66 515.85 512.20 C 521.83 513.44 527.77 514.90 533.73 516.29 C 515.11 531.49 495.53 545.55 475.02 558.08 C 462.61 565.06 447.18 566.16 433.85 561.25 C 427.75 559.12 422.41 555.38 417.02 551.91 C 400.13 540.90 383.73 529.10 368.15 516.29 Z" />
</svg>
